<svg xmlns="http://www.w3.org/2000/svg" viewBox="18 246 2875 983" role="img" aria-label="packs">
  <path fill="#1c1719" d="M134 1189Q97 1189 77.5 1169.5Q58 1150 58 1112L58 577Q58 540 77.5 520.5Q97 501 132 501Q169 501 188 520.5Q207 540 207 577L207 645L196 606Q211 558 256.5 528.5Q302 499 361 499Q425 499 473.5 530Q522 561 549 618Q576 675 576 754Q576 833 549 891Q522 949 474 980Q426 1011 361 1011Q303 1011 258 982.5Q213 954 197 908L209 908L209 1112Q209 1150 189.5 1169.5Q170 1189 134 1189ZM316 898Q348 898 372.5 882Q397 866 410.5 834.5Q424 803 424 754Q424 681 394 646.5Q364 612 316 612Q284 612 259.5 627Q235 642 221 673.5Q207 705 207 754Q207 827 237 862.5Q267 898 316 898ZM834 1011Q780 1011 737 990Q694 969 670 933Q646 897 646 852Q646 798 674 766.5Q702 735 765 721.5Q828 708 932 708L985 708L985 786L933 786Q882 786 850.5 791.5Q819 797 805.5 810Q792 823 792 846Q792 874 811.5 892Q831 910 868 910Q897 910 919.5 896.5Q942 883 955 859.5Q968 836 968 806L968 691Q968 647 948 628.5Q928 610 880 610Q853 610 821.5 616.5Q790 623 752 638Q730 648 713 642.5Q696 637 687 622.5Q678 608 678 590.5Q678 573 688 556.5Q698 540 721 532Q768 513 809.5 506Q851 499 886 499Q963 499 1012.5 521.5Q1062 544 1087 590.5Q1112 637 1112 710L1112 932Q1112 969 1094 989Q1076 1009 1042 1009Q1008 1009 989.5 989Q971 969 971 932L971 895L978 901Q972 935 952.5 959.5Q933 984 903 997.5Q873 1011 834 1011ZM1464 1011Q1384 1011 1324.5 979.5Q1265 948 1233 890Q1201 832 1201 753Q1201 694 1219 647Q1237 600 1271.5 567Q1306 534 1355 516.5Q1404 499 1464 499Q1495 499 1530 506.5Q1565 514 1599 532Q1619 541 1626.5 557.5Q1634 574 1632 591.5Q1630 609 1619.5 622.5Q1609 636 1593 640.5Q1577 645 1557 635Q1538 624 1517.5 619Q1497 614 1479 614Q1449 614 1426 623.5Q1403 633 1387.5 650.5Q1372 668 1363.5 694Q1355 720 1355 754Q1355 820 1387.5 857.5Q1420 895 1479 895Q1497 895 1517 890.5Q1537 886 1557 875Q1577 865 1593 870Q1609 875 1618.5 888.5Q1628 902 1629.5 919.5Q1631 937 1623.5 953.5Q1616 970 1597 979Q1563 996 1529 1003.5Q1495 1011 1464 1011ZM1779 1009Q1742 1009 1722.5 989Q1703 969 1703 932L1703 363Q1703 325 1722.5 305.5Q1742 286 1779 286Q1815 286 1834.5 305.5Q1854 325 1854 363L1854 712L1856 712L2001 551Q2023 526 2041.5 513.5Q2060 501 2091 501Q2122 501 2138.5 517Q2155 533 2155.5 555.5Q2156 578 2136 601L1983 772L1983 715L2153 911Q2172 934 2169.5 957Q2167 980 2149 994.5Q2131 1009 2103 1009Q2069 1009 2048.5 996Q2028 983 2007 956L1856 788L1854 788L1854 932Q1854 1009 1779 1009ZM2442 1011Q2398 1011 2351.5 1003Q2305 995 2267 976Q2247 966 2238.5 950.5Q2230 935 2231 919Q2232 903 2241.5 890Q2251 877 2266.5 872.5Q2282 868 2301 876Q2342 893 2376 900Q2410 907 2443 907Q2486 907 2505.5 893.5Q2525 880 2525 858Q2525 838 2512 828Q2499 818 2474 814L2369 795Q2307 784 2273.5 749.5Q2240 715 2240 661Q2240 611 2268 574.5Q2296 538 2345.5 518.5Q2395 499 2458 499Q2503 499 2541 507Q2579 515 2614 533Q2632 542 2639.5 557Q2647 572 2644.5 588Q2642 604 2632 617Q2622 630 2606.5 634Q2591 638 2571 630Q2539 615 2512 608.5Q2485 602 2460 602Q2415 602 2395 616.5Q2375 631 2375 653Q2375 670 2386.5 681.5Q2398 693 2422 697L2527 716Q2592 727 2626 759.5Q2660 792 2660 848Q2660 924 2600.5 967.5Q2541 1011 2442 1011Z"/>
  <circle cx="2778" cy="925" r="75" fill="#ac396d"/>
</svg>
